<svg xmlns="http://www.w3.org/2000/svg" width="24" height="24" fill="none" viewBox="0 0 24 24">
  <g clip-path="url(#a)">
    <g opacity=".4">
      <mask id="b" fill="#fff">
        <ellipse cx="12" cy="21.633" rx="12" ry="2.1"/>
      </mask>
      <path fill="#5CAEFF" d="M17.143 21.633c0-2.709 1.586-4.3 2.156-4.788.621-.531 1.13-.728 1.136-.73.072-.03-.239.092-1.132.249-1.674.293-4.26.512-7.303.512V30.59c3.585 0 6.999-.25 9.667-.717 1.279-.224 2.725-.554 4.012-1.086.613-.254 1.593-.715 2.534-1.52.89-.76 2.644-2.635 2.644-5.634H17.143ZM12 16.876c-3.043 0-5.629-.22-7.303-.512-.893-.157-1.204-.28-1.132-.25.006.003.515.2 1.136.731a6.302 6.302 0 0 1 2.156 4.788H-6.857c0 3 1.754 4.873 2.644 5.635.94.804 1.921 1.265 2.534 1.519 1.287.532 2.733.862 4.012 1.086C5 30.34 8.416 30.59 12 30.59V16.876Zm-5.143 4.757c0 2.71-1.586 4.3-2.156 4.788-.621.531-1.13.729-1.136.731-.072.03.239-.093 1.132-.25 1.674-.292 4.26-.512 7.303-.512V12.676c-3.584 0-6.999.25-9.667.718-1.279.223-2.725.553-4.012 1.086-.613.253-1.593.714-2.534 1.519-.89.761-2.644 2.635-2.644 5.634H6.857ZM12 26.39c3.043 0 5.629.22 7.303.513.893.156 1.204.279 1.132.249-.006-.003-.515-.2-1.136-.73a6.302 6.302 0 0 1-2.156-4.789h13.714c0-2.999-1.754-4.873-2.644-5.634-.94-.805-1.921-1.266-2.534-1.52-1.287-.532-2.733-.861-4.012-1.085-2.668-.467-6.083-.718-9.667-.718V26.39Z" mask="url(#b)"/>
    </g>
    <path fill="#5CAEFF" fill-rule="evenodd" stroke="#5CAEFF" stroke-linecap="round" stroke-linejoin="round" stroke-width=".833" d="M18.722 7.545C18.722 12.636 11.5 21 11.5 21S4.278 12.636 4.278 7.545C4.278 3.93 7.51 1 11.5 1c3.989 0 7.222 2.93 7.222 6.545Z" clip-rule="evenodd"/>
    <ellipse cx="4.444" cy="3.333" fill="#fff" rx="4.444" ry="3.333" transform="matrix(1 0 0 -1 7.056 8.777)"/>
  </g>
  <defs>
    <clipPath id="a">
      <path fill="#fff" d="M0 0h24v24H0z"/>
    </clipPath>
  </defs>
</svg>
