<svg xmlns="http://www.w3.org/2000/svg" width="24" height="24" fill="none" viewBox="0 0 24 24">
  <path stroke="#FF5C5C" stroke-width="2" d="M5.4 19.198c.461-.516 2.621-2.893 3.254-2.893h6.692c.918 0 2.79 1.97 3.254 2.665m3-6.972a9.6 9.6 0 0 1-9.6 9.6 9.6 9.6 0 0 1 0-19.2 9.6 9.6 0 0 1 9.6 9.6Zm-6.161-3.272c0-1.831-1.546-3.328-3.439-3.328-1.892 0-3.438 1.497-3.438 3.328 0 1.832 1.546 3.328 3.438 3.328 1.893 0 3.439-1.496 3.439-3.328Z"/>
  <path fill="#FFF1EF" fill-rule="evenodd" d="M21.6 11.998a9.6 9.6 0 0 1-9.6 9.6 9.6 9.6 0 0 1 0-19.2 9.6 9.6 0 0 1 9.6 9.6Zm-6.161-3.272c0-1.831-1.546-3.328-3.439-3.328-1.892 0-3.438 1.497-3.438 3.328 0 1.832 1.546 3.328 3.438 3.328 1.893 0 3.439-1.496 3.439-3.328Z" clip-rule="evenodd"/>
  <path stroke="#FF5C5C" stroke-width="2" d="M5.4 19.198c.461-.516 2.621-2.893 3.254-2.893h6.692c.918 0 2.79 1.97 3.254 2.665m3-6.972a9.6 9.6 0 0 1-9.6 9.6 9.6 9.6 0 0 1 0-19.2 9.6 9.6 0 0 1 9.6 9.6Zm-6.161-3.272c0-1.831-1.546-3.328-3.439-3.328-1.892 0-3.438 1.497-3.438 3.328 0 1.832 1.546 3.328 3.438 3.328 1.893 0 3.439-1.496 3.439-3.328Z"/>
  <path fill="#FFF1EF" fill-rule="evenodd" stroke="#FF5C5C" stroke-width="2" d="M15.439 8.726c0-1.831-1.546-3.328-3.439-3.328-1.892 0-3.438 1.497-3.438 3.328 0 1.832 1.546 3.328 3.438 3.328 1.893 0 3.439-1.496 3.439-3.328Z" clip-rule="evenodd"/>
</svg>
