<svg xmlns="http://www.w3.org/2000/svg" width="40" height="40" fill="none" viewBox="0 0 40 40">
  <circle cx="20" cy="20" r="20" fill="#fff"/>
  <path fill="#212225" d="M20 10.25A9.75 9.75 0 1 0 29.75 20 9.76 9.76 0 0 0 20 10.25Zm.75 17.965V26.25a.75.75 0 1 0-1.5 0v1.965a8.262 8.262 0 0 1-7.465-7.465h1.965a.75.75 0 1 0 0-1.5h-1.965a8.262 8.262 0 0 1 7.465-7.465v1.965a.75.75 0 1 0 1.5 0v-1.965a8.262 8.262 0 0 1 7.465 7.465H26.25a.75.75 0 1 0 0 1.5h1.965a8.262 8.262 0 0 1-7.465 7.465Z"/>
  <circle cx="20" cy="20" r="1.5" fill="#212225"/>
</svg>
