<svg xmlns="http://www.w3.org/2000/svg" width="56" height="56" fill="none" viewBox="0 0 56 56">
  <g clip-path="url(#a)">
    <path fill="#000" d="M18.91 28.511a1.911 1.911 0 1 0 0-3.822 1.911 1.911 0 0 0 0 3.822Zm-3.5 11.917h2.098v7.873h2.8v-7.873h2.1v-8.583a1.906 1.906 0 0 0-1.907-1.906h-3.18a1.912 1.912 0 0 0-1.912 1.906v8.583Zm13.3-11.917a1.911 1.911 0 1 0 0-3.822 1.911 1.911 0 0 0 0 3.822Zm-3.522 11.917h2.123v7.873h2.815v-7.873h2.1v-8.583a1.906 1.906 0 0 0-1.907-1.906h-3.2a1.91 1.91 0 0 0-1.931 1.906v8.583Zm13.319-11.917a1.911 1.911 0 1 0 0-3.822 1.911 1.911 0 0 0 0 3.822Zm-3.501 11.917h2.099v7.873h2.8v-7.873h2.099v-8.583a1.906 1.906 0 0 0-1.906-1.906h-3.18a1.912 1.912 0 0 0-1.912 1.906v8.583Z"/>
    <path fill="#000" d="M47.61 53.2H9.808V19.617h37.8V53.2Zm-35.001-2.825h32.2V22.402h-32.2v27.973Zm33.257-40.251-8.075-8.08-8.07 8.07 1.981 1.98 4.687-4.69v9.398h2.8V7.403l4.697 4.702 1.98-1.98ZM20.99 12.15V2.8h-2.8v9.35l-4.697-4.702-1.98 1.98 8.08 8.08 8.07-8.07-1.981-1.98-4.692 4.691Z"/>
  </g>
  <defs>
    <clipPath id="a">
      <path fill="#fff" d="M0 0h56v56H0z"/>
    </clipPath>
  </defs>
</svg>
