<svg xmlns="http://www.w3.org/2000/svg" width="21" height="21" fill="none" viewBox="0 0 21 21">
  <path fill="#4285F4" fill-rule="evenodd" d="M20.128 10.62c0-.708-.063-1.39-.181-2.045h-9.418v3.869h5.381a4.6 4.6 0 0 1-1.995 3.018v2.509h3.232c1.89-1.741 2.982-4.305 2.982-7.35Z" clip-rule="evenodd"/>
  <path fill="#34A853" fill-rule="evenodd" d="M10.528 20.393c2.7 0 4.964-.895 6.619-2.422l-3.232-2.51c-.896.6-2.041.955-3.386.955-2.605 0-4.81-1.759-5.596-4.123h-3.34v2.591a9.996 9.996 0 0 0 8.935 5.51Z" clip-rule="evenodd"/>
  <path fill="#FBBC05" fill-rule="evenodd" d="M4.933 12.293c-.2-.6-.314-1.24-.314-1.9 0-.659.114-1.3.314-1.9v-2.59h-3.34a9.996 9.996 0 0 0-1.064 4.49c0 1.614.386 3.141 1.063 4.491l3.341-2.59Z" clip-rule="evenodd"/>
  <path fill="#EA4335" fill-rule="evenodd" d="M10.528 4.37c1.469 0 2.787.505 3.823 1.496l2.868-2.868C15.488 1.384 13.224.394 10.53.394a9.995 9.995 0 0 0-8.937 5.509l3.341 2.59c.786-2.363 2.991-4.122 5.595-4.122Z" clip-rule="evenodd"/>
</svg>
