<svg xmlns="http://www.w3.org/2000/svg" width="56" height="56" fill="none" viewBox="0 0 56 56">
  <g clip-path="url(#a)">
    <path fill="#000" d="M22.396 53.16h30.798V37.801l-30.798 15.36Zm9.132-11.734-1.739-2.41a12.346 12.346 0 1 1-16.791-17.192V18.66a15.156 15.156 0 1 0 18.53 22.767ZM19.202 11.473a4.198 4.198 0 1 0 0-8.396 4.198 4.198 0 0 0 0 8.396Z"/>
    <path fill="#000" d="M29.632 21.73a21.936 21.936 0 0 1-5.196-4.479c-.21-.263-.418-.53-.622-.8-.637-.84-1.2-1.842-2.04-2.499a4.139 4.139 0 0 0-6.697 3.2l-.03 13.764a4.144 4.144 0 0 0 4.135 4.149l10.37.044 6.006 8.352 3.25-1.911-2.756-5.902-1.546-3.294-.815-1.734a2.47 2.47 0 0 0-1.738-1.358c-2.815-.726-5.749-1.14-8.613-1.724v-4.642a44.87 44.87 0 0 0 4.316 2.143 28.575 28.575 0 0 0 5.606 1.359l.612-2.692a31.141 31.141 0 0 1-4.242-1.976Z"/>
  </g>
  <defs>
    <clipPath id="a">
      <path fill="#fff" d="M0 0h56v56H0z"/>
    </clipPath>
  </defs>
</svg>
