<svg xmlns="http://www.w3.org/2000/svg" width="56" height="32" fill="none" viewBox="0 0 56 32">
  <g clip-path="url(#a)">
    <path fill="#000" d="M39.91 27.438a7.406 7.406 0 0 1-3.726-13.809v-1.767a8.973 8.973 0 0 0 .002 16.328 8.974 8.974 0 0 0 10.99-2.892l-.977-1.353a7.41 7.41 0 0 1-6.29 3.493Zm-.091-20.034a2.35 2.35 0 1 0 0-4.702 2.35 2.35 0 0 0 0 4.702Z"/>
    <path fill="#000" d="M42.277 14.28a18.12 18.12 0 0 0 5.871 2.187l.41-1.576a19.764 19.764 0 0 1-4.212-2.445c-.789-.645-1.696-1.793-2.429-2.802-.509-.702-1.183-1.175-2.088-1.178a2.459 2.459 0 0 0-2.467 2.467v8.194a2.49 2.49 0 0 0 .96 1.953c.888.683 2.138.553 3.189.553h4.475l.81 1.123.788 1.106.263.365 1.718 2.382 1.936-1.14-.753-1.612-1.864-3.969-.437-.932a1.466 1.466 0 0 0-1.034-.808l-5.136-1.014v-2.855Z"/>
  </g>
  <g clip-path="url(#b)">
    <path fill="#000" d="M22.347 6.27a2.35 2.35 0 1 0 0-4.702 2.35 2.35 0 0 0 0 4.702Zm-1.961 1.134a2.35 2.35 0 0 0-2.35 2.35v10.77H19.6v9.265h2.351v-9.265h.783v9.265h2.35v-9.265h1.572V9.754a2.35 2.35 0 0 0-2.351-2.35h-3.919ZM9.423 6.27a2.35 2.35 0 1 0 0-4.702 2.35 2.35 0 0 0 0 4.702Zm2.347 7.199V9.755a2.351 2.351 0 0 0-4.7 0v3.72c-2.368 2.303-3.134 4.654-3.134 8.617h3.916v7.697h3.136v-7.697h3.919c0-3.963-.802-6.328-3.136-8.623Z"/>
  </g>
  <defs>
    <clipPath id="a">
      <path fill="#fff" d="M24.64 0H56v31.36H24.64z"/>
    </clipPath>
    <clipPath id="b">
      <path fill="#fff" d="M0 0h31.36v31.36H0z"/>
    </clipPath>
  </defs>
</svg>
