<svg xmlns="http://www.w3.org/2000/svg" width="66" height="65" fill="none" viewBox="0 0 66 65">
  <g opacity=".4">
    <mask id="a" fill="#fff">
      <ellipse cx="33" cy="59.249" rx="32.863" ry="5.751"/>
    </mask>
    <path fill="#fff" d="M47.084 59.249a17.26 17.26 0 0 1 5.906-13.113c1.7-1.454 3.095-1.994 3.111-2 .197-.082-.655.254-3.1.682C48.415 45.62 41.333 46.22 33 46.22v37.558c9.816 0 19.167-.687 26.475-1.966 3.501-.613 7.462-1.516 10.985-2.973 1.68-.695 4.364-1.957 6.94-4.16 2.438-2.085 7.242-7.218 7.242-15.431H47.084ZM33 46.22c-8.333 0-15.415-.6-20-1.403-2.446-.428-3.298-.764-3.101-.683.016.007 1.41.547 3.11 2.001a17.258 17.258 0 0 1 5.907 13.113h-37.558c0 8.213 4.804 13.346 7.242 15.43 2.576 2.204 5.26 3.466 6.94 4.16 3.523 1.458 7.484 2.361 10.985 2.974C13.833 83.093 23.184 83.78 33 83.78V46.22ZM18.916 59.249c0 7.42-4.344 11.776-5.906 13.112-1.7 1.455-3.095 1.995-3.111 2.002-.197.08.655-.255 3.1-.683 4.586-.803 11.668-1.403 20.001-1.403V34.719c-9.816 0-19.167.687-26.475 1.965-3.501.613-7.462 1.517-10.985 2.974-1.68.695-4.364 1.957-6.94 4.16-2.438 2.085-7.242 7.217-7.242 15.43h37.558ZM33 72.277c8.333 0 15.415.6 20 1.403 2.446.428 3.298.764 3.101.683-.016-.007-1.41-.547-3.11-2.002a17.258 17.258 0 0 1-5.907-13.112h37.558c0-8.214-4.804-13.346-7.242-15.43-2.576-2.204-5.26-3.466-6.94-4.161-3.522-1.457-7.484-2.36-10.985-2.974C52.167 35.407 42.816 34.72 33 34.72v37.558Z" mask="url(#a)"/>
  </g>
  <path fill="#fff" d="M41.853 24.02C34.286 15.08 37.674 4.88 39.53.816c.25-.535-.416-1.04-.94-.71-3.255 2.032-7.836 4.665-13.028 13.547-4.104 7.02-7.276 16.71-4.787 22.15-1.796-1.582-3.076-3.593-3.696-5.806-.133-.474-.807-.604-1.115-.214-2.331 2.957-3.538 7.702-3.597 11.056-.183 10.369 9.15 18.774 20.437 18.774 14.227 0 24.59-14.441 16.416-26.514-2.372-3.515-4.603-5.815-7.367-9.077Z"/>
  <ellipse cx="32.236" cy="46.62" fill="#FF5C5C" rx="10.7" ry="8.407"/>
</svg>
